<svg width="18" height="18" viewBox="0 0 18 18" fill="none" xmlns="http://www.w3.org/2000/svg">
<path fill-rule="evenodd" clip-rule="evenodd" d="M3.36701 1.06L4.45844 0L5.57273 1.07143L4.46416 2.13L3.36701 1.06ZM7.9813 4.60286C7.9813 5.49143 7.75273 6.19 7.29844 6.69857C7.0113 7.01429 6.63844 7.25571 6.17987 7.42C5.68104 7.58455 5.1579 7.66329 4.63273 7.65286H3.83987C3.23844 7.65286 2.69559 7.54714 2.21273 7.33429C1.69109 7.11481 1.24442 6.74854 0.927014 6.28C0.588639 5.74789 0.415175 5.12759 0.428442 4.49714C0.428442 4.41286 0.429871 4.33 0.434157 4.24571C0.477014 3.46 0.725585 2.59143 1.18416 1.63571L2.74844 2.32714C2.3813 3.08714 2.1813 3.75571 2.14987 4.33143C2.14701 4.38857 2.14416 4.44571 2.14416 4.50286C2.14416 4.86286 2.22273 5.15714 2.3813 5.38571C2.55178 5.63377 2.80498 5.81304 3.09559 5.89143C3.21701 5.93143 3.34987 5.96 3.49273 5.97714C3.60559 5.99143 3.7213 5.99714 3.83987 5.99714H4.63273C5.28701 5.99714 5.7313 5.88143 5.96558 5.64857C6.16559 5.45 6.26558 5.10143 6.26558 4.60429V1.45714H7.97987V4.60286H7.9813ZM15.7427 9.15143L14.7142 8.15143L15.727 7.14286L16.777 8.15286L15.7427 9.15143ZM11.6627 9.59143C12.437 9.59143 13.0527 9.86286 13.5099 10.4043C13.9342 10.8986 14.1456 11.5143 14.1456 12.2514V12.7714H14.4027V12.7657H14.9884C15.3042 12.7657 15.527 12.7257 15.6556 12.6457C15.7884 12.5671 15.8556 12.4457 15.8556 12.2771V12.1786C15.8613 11.8314 15.8799 10.6871 15.8556 10.5857L17.5713 10.0714V12.32C17.5756 12.7651 17.4314 13.199 17.1613 13.5529C16.7242 14.1314 16.0127 14.42 15.0256 14.42H14.1299C14.0427 15.4671 13.5099 16.2157 12.5342 16.6671C12.1527 16.8414 11.7056 16.9671 11.1956 17.0457C10.7635 17.1117 10.3269 17.1437 9.88987 17.1414V15.4857C10.7642 15.4857 11.4213 15.3686 11.8613 15.1329C12.2184 14.9443 12.3984 14.7071 12.3984 14.42H11.6627C11.0399 14.42 10.5099 14.2586 10.0727 13.9357C9.54844 13.5457 9.28701 12.9829 9.28701 12.25C9.28701 11.5529 9.4613 10.9629 9.8113 10.4786C10.2342 9.88571 10.8513 9.59 11.6627 9.59V9.59143ZM12.4242 12.7714V12.2514C12.4242 11.9414 12.3556 11.6957 12.2199 11.5143C12.1557 11.4279 12.0714 11.3584 11.9743 11.3118C11.8773 11.2653 11.7703 11.2431 11.6627 11.2471C11.554 11.2434 11.4459 11.2656 11.3475 11.3121C11.2491 11.3586 11.1632 11.4279 11.097 11.5143C10.9609 11.6996 10.8924 11.926 10.9027 12.1557C10.9025 12.1877 10.9039 12.2196 10.907 12.2514C10.9184 12.43 11.0013 12.5657 11.1599 12.6557C11.2927 12.7329 11.4599 12.77 11.6627 12.77L12.4242 12.7714ZM12.5713 8.15286L13.5999 9.15286L14.6342 8.15286L13.5842 7.14286L12.5713 8.15286ZM3.00844 15.1357H3.0513C3.66987 15.1214 4.11559 14.9843 4.38987 14.7214C4.42416 14.7386 4.48273 14.7714 4.5613 14.8186L4.66701 14.8743L4.78273 14.9343C4.97558 15.0386 5.15559 15.1243 5.32416 15.1914C5.81701 15.4 6.2813 15.5057 6.71987 15.5057C6.94882 15.5107 7.1765 15.4703 7.3898 15.387C7.60309 15.3036 7.79781 15.1789 7.96273 15.02C8.3913 14.6129 8.60416 14 8.60416 13.1829C8.59908 12.6038 8.4334 12.0376 8.12558 11.5471C7.69844 10.8943 7.07987 10.5686 6.26844 10.5686C5.5513 10.5686 4.95987 10.8429 4.49416 11.39C4.33273 11.5786 4.19416 11.7957 4.07416 12.0414C4.02844 12.13 3.98844 12.22 3.95416 12.3143C3.93681 12.3502 3.92248 12.3874 3.9113 12.4257C3.90028 12.4541 3.8898 12.4827 3.87987 12.5114C3.73273 12.9529 3.63559 13.2043 3.58701 13.2686C3.48416 13.3971 3.2813 13.4686 2.97701 13.4786C2.8013 13.4714 2.67844 13.4357 2.6113 13.37C2.52987 13.2929 2.48987 13.1514 2.48987 12.9457V8.57143L0.774157 7.85714V12.9457C0.774157 13.3186 0.842728 13.6543 0.978442 13.95C1.07987 14.1757 1.21844 14.3729 1.39273 14.54C1.56844 14.7086 1.77273 14.8414 2.00701 14.94C2.28987 15.06 2.60701 15.1257 2.95701 15.1343V15.1357H3.00844ZM6.93987 13.6871C6.99949 13.5262 7.021 13.3536 7.00273 13.1829C6.99144 12.9408 6.9095 12.7074 6.76701 12.5114C6.62416 12.32 6.45701 12.2243 6.26701 12.2243C6.00987 12.2243 5.79558 12.3714 5.62844 12.6671C5.56844 12.7686 5.51416 12.8929 5.46559 13.0414C5.44506 13.0981 5.426 13.1552 5.40844 13.2129L5.38701 13.2886L5.36558 13.3543C5.56844 13.5229 5.82701 13.6629 6.14273 13.7729C6.39987 13.8614 6.60701 13.9043 6.7613 13.9043C6.82416 13.9043 6.88416 13.8329 6.93987 13.6871Z" fill="#3B3B3B"/>
</svg>
